<svg xmlns="http://www.w3.org/2000/svg" width="87.129" height="48.3" viewBox="0 0 87.129 48.3">
  <g id="ticketbutton" transform="translate(-385.589 -74.007)">
    <path id="Path_4" data-name="Path 4" d="M580.587,190.566a1.287,1.287,0,0,0-1.041.464,2.509,2.509,0,0,0-.509,1.254h2.8Q581.788,190.566,580.587,190.566Z" transform="translate(-142.346 -85.768)" fill="#14445a"/>
    <path id="Path_5" data-name="Path 5" d="M516.653,130.452a1.666,1.666,0,0,0-.562-1.406,2.225,2.225,0,0,0-1.4-.433q-.836,0-1.231.015V131.1a11.911,11.911,0,0,1-.061,1.337q1,0,1.474-.015a1.774,1.774,0,0,0,1.337-.57A2.114,2.114,0,0,0,516.653,130.452Z" transform="translate(-94.049 -40.181)" fill="#14445a"/>
    <path id="Path_6" data-name="Path 6" d="M515.721,113.884a2.442,2.442,0,0,0,.4-1.466,1.476,1.476,0,0,0-.456-1.2,1.676,1.676,0,0,0-1.109-.38,1.4,1.4,0,0,0-.509.076.594.594,0,0,0-.3.357,2.372,2.372,0,0,0-.114.843v2.355l.79-.015A1.531,1.531,0,0,0,515.721,113.884Z" transform="translate(-94.218 -27.101)" fill="#14445a"/>
    <path id="Path_7" data-name="Path 7" d="M676.567,74.007h-2.406v48.3h2.406c0-4.262,3.8-7.717,8.493-7.717V81.724C680.37,81.724,676.567,78.269,676.567,74.007Z" transform="translate(-212.342)" fill="#14445a"/>
    <path id="Path_8" data-name="Path 8" d="M394.082,74.007c0,4.262-3.8,7.717-8.493,7.717V114.59c4.691,0,8.493,3.455,8.493,7.717h2.406v-48.3Z" fill="#14445a"/>
    <path id="Path_9" data-name="Path 9" d="M491.913,74.007H432.949v48.3h62.108v-48.3ZM450.98,92.337a1.971,1.971,0,0,0,.623-.1.629.629,0,0,0,.334-.357,2.274,2.274,0,0,0,.122-.866V85.2a12.122,12.122,0,0,1,.061-1.368l-1.14.046V82.7l4.209-.03a5.145,5.145,0,0,1,2.857.654,2.188,2.188,0,0,1,1.033,1.96,2.042,2.042,0,0,1-.555,1.375,3.217,3.217,0,0,1-1.634.919V87.6a3.874,3.874,0,0,1,2.2.972,2.393,2.393,0,0,1,.745,1.748,2.656,2.656,0,0,1-1.026,2.234,4.248,4.248,0,0,1-2.667.79H450.98Zm-1.793,8.016a1.091,1.091,0,0,1,.82-.372,1.049,1.049,0,0,1,.813.365,1.3,1.3,0,0,1,.326.9,1.276,1.276,0,0,1-.311.881,1.037,1.037,0,0,1-.813.349,1.114,1.114,0,0,1-.851-.357,1.232,1.232,0,0,1-.334-.874A1.252,1.252,0,0,1,449.187,100.353Zm-3.131,4.019a2.853,2.853,0,0,0-.494-1.816,1.626,1.626,0,0,0-1.375-.6h-.729v7.127a9.766,9.766,0,0,1-.061,1.367q.5-.046,1.215-.046v1.17h-4.437v-1a1.971,1.971,0,0,0,.623-.1.63.63,0,0,0,.334-.357,2.281,2.281,0,0,0,.122-.866v-7.279h-.7a1.728,1.728,0,0,0-1.383.608,2.785,2.785,0,0,0-.486,1.793h-1l.076-3.434h9.209l.091,3.434Zm5.8,7.2h-3.981v-.988q.577,0,.737-.319a2.461,2.461,0,0,0,.159-1.033v-2.523a13.219,13.219,0,0,1,.061-1.322l-1.064.045v-1.155a7.107,7.107,0,0,0,1.55-.137,1.849,1.849,0,0,0,.79-.319h.821v5.3q0,.729-.061,1.337.486-.046.988-.046Zm6.412-.152a4.378,4.378,0,0,1-1.839.395,3.875,3.875,0,0,1-1.884-.463,3.43,3.43,0,0,1-1.353-1.337,4.1,4.1,0,0,1-.5-2.074,4.5,4.5,0,0,1,.5-2.1A3.914,3.914,0,0,1,454.6,104.3a3.749,3.749,0,0,1,2.044-.57,3.962,3.962,0,0,1,1.588.288,2.3,2.3,0,0,1,1,.768,1.757,1.757,0,0,1,.334,1.025,1.21,1.21,0,0,1-.281.805.95.95,0,0,1-.768.334.918.918,0,0,1-.752-.3,1.045,1.045,0,0,1-.251-.684,1.33,1.33,0,0,1,.183-.669.778.778,0,0,0-.441-.387,1.72,1.72,0,0,0-.608-.114,1.455,1.455,0,0,0-1.254.707,3.541,3.541,0,0,0-.479,2,4.082,4.082,0,0,0,.5,2.128,1.709,1.709,0,0,0,1.58.836,2.506,2.506,0,0,0,1.2-.319,3.128,3.128,0,0,0,1-.851l.7.684A4.267,4.267,0,0,1,458.274,111.423Zm10.576.152H467.1a1.191,1.191,0,0,1-.805-.3,6.756,6.756,0,0,1-.881-1.018q-.578-.775-1.109-1.58l-.41-.577-.35.015v1.018q0,.729-.061,1.337.486-.046.987-.046v1.155h-4v-.988q.577,0,.745-.319a2.368,2.368,0,0,0,.167-1.033v-6.246a13.009,13.009,0,0,1,.061-1.322l-1.064.046v-1.155a7.145,7.145,0,0,0,1.55-.137,1.719,1.719,0,0,0,.775-.319h.836v6.929h.73l1.094-1.261q.471-.532.592-.638v-.015l-.805.015v-1.155h3.419v.973a2.8,2.8,0,0,0-1.238.4,4.3,4.3,0,0,0-.92.8l-.972,1.079v.015a1.982,1.982,0,0,1,.464.327,4.685,4.685,0,0,1,.524.615l1.018,1.337a8.314,8.314,0,0,0,.7.775.985.985,0,0,0,.7.289Zm.319-18.235h-2.887l-.091-.79h-.015a5.762,5.762,0,0,1-1.086.76,2.507,2.507,0,0,1-1.178.273,2.251,2.251,0,0,1-1.937-.79,4.387,4.387,0,0,1-.585-2.568V88.477q0-.638.046-1.322l-1.064.045V86.046a7.109,7.109,0,0,0,1.55-.137,1.853,1.853,0,0,0,.79-.319h.836v4.65a3.192,3.192,0,0,0,.259,1.474.869.869,0,0,0,.821.471,1.671,1.671,0,0,0,.782-.213,2.417,2.417,0,0,0,.676-.517V88.477q0-.714.061-1.322l-1.064.045V86.046a7,7,0,0,0,1.542-.137,1.841,1.841,0,0,0,.783-.319h.836v5.3q0,.729-.061,1.337.486-.046.987-.046Zm3.8,18.478a3.834,3.834,0,0,1-1.96-.494,3.373,3.373,0,0,1-1.322-1.406,4.569,4.569,0,0,1-.471-2.127,4.322,4.322,0,0,1,.479-2,3.84,3.84,0,0,1,1.345-1.5,3.84,3.84,0,0,1,4.43.3,3.648,3.648,0,0,1,.965,2.887l-4.984.091a3.809,3.809,0,0,0,.509,2.112,1.81,1.81,0,0,0,1.634.775,2.793,2.793,0,0,0,1.14-.273,3.031,3.031,0,0,0,1.094-.866l.684.638A4.088,4.088,0,0,1,472.968,111.818Zm4-24.556a4.615,4.615,0,0,0-.577,1.185l-1.9,5.425a16.27,16.27,0,0,1-.836,2.1,3.387,3.387,0,0,1-.843,1.117,1.774,1.774,0,0,1-1.147.372,1.436,1.436,0,0,1-.988-.35,1.141,1.141,0,0,1-.4-.9,1.063,1.063,0,0,1,.281-.737.911.911,0,0,1,.707-.311.727.727,0,0,1,.555.236.865.865,0,0,1,.22.615,1.051,1.051,0,0,1-.015.2v.015q.288,0,.646-.729a10.431,10.431,0,0,0,.646-1.763l-2.4-4.817a8.1,8.1,0,0,1-.532-1.193,5.309,5.309,0,0,1-.2-.859l-.7.03V85.742h3.784v.973q-.639.076-.638.593a1.459,1.459,0,0,0,.152.592l1.489,3.4h.015l.319-1.018q.167-.577.638-2.006a4.586,4.586,0,0,1,.638-1.429v-.015l-.866.06V85.742h2.7v.973A1.32,1.32,0,0,0,476.965,87.262Zm4.984,24.26a3.63,3.63,0,0,1-1.4.3q-2.371,0-2.371-2.917l.03-3.662h-1.033v-1.262a1.571,1.571,0,0,0,.919-.3,2.939,2.939,0,0,0,.737-.744,3.051,3.051,0,0,0,.426-.851h1.125l-.015,1.9h1.93v1.17l-1.93.046-.015,3.738q0,1.474.912,1.474a1.782,1.782,0,0,0,1.383-.912l.73.684A3.527,3.527,0,0,1,481.949,111.522Zm7.742-.76a2.4,2.4,0,0,1-1.018.79,3.47,3.47,0,0,1-1.36.266,4.915,4.915,0,0,1-1.276-.167,2.913,2.913,0,0,1-.973-.426h-.015l.046.456H483.94l-.061-2.614h.988a1.649,1.649,0,0,0,.737,1.178,2.686,2.686,0,0,0,1.619.478,1.347,1.347,0,0,0,.737-.2.628.628,0,0,0,.312-.562.6.6,0,0,0-.2-.456,1.717,1.717,0,0,0-.471-.3q-.274-.122-1.094-.441-.973-.38-1.459-.623a2.651,2.651,0,0,1-.874-.722,1.907,1.907,0,0,1-.388-1.238,2.335,2.335,0,0,1,1.269-2.09,3.245,3.245,0,0,1,1.588-.357,3.759,3.759,0,0,1,.957.137,2.734,2.734,0,0,1,.866.38h.015l-.015-.441h1.155V106.5h-.988a1.976,1.976,0,0,0-.7-1.246,2.123,2.123,0,0,0-1.383-.456,1.237,1.237,0,0,0-.714.2.772.772,0,0,0,.046,1.238,5.741,5.741,0,0,0,1.125.463,3.293,3.293,0,0,1,.395.122,6.059,6.059,0,0,1,1.983,1.064,2.023,2.023,0,0,1,.691,1.6A2.1,2.1,0,0,1,489.691,110.762Z" transform="translate(-34.849)" fill="#14445a"/>
  </g>
</svg>
